# xmcd
# 
# Track frame offsets:
#     150
#     21025
#     37538
#     56818
#     84201
#     98780
#     121513
#     143629
#     163888
#     187063
#     201599
# 
# Disc length: 2937
# 
# Revision: 2
# Processed by: cddbd v1.5.2PL0 Copyright (c) Steve Scherf et al.
# Submitted via: fre:ac v1.0.17
# 
DISCID=890b770b
DTITLE=Davy Knowles And Back Door Slam - Coming Up For Air
DYEAR=2009
DGENRE=Blues
TTITLE0=Coming Up For Air
TTITLE1=Riverbed
TTITLE2=Mistakes
TTITLE3=Hear Me Lord
TTITLE4=Amber's Song
TTITLE5=Tear Down The Walls
TTITLE6=You Can't Take This Back
TTITLE7=Country Girl
TTITLE8=Keep On Searching
TTITLE9=Saving Myself
TTITLE10=Taste Of Danger
EXTD=
EXTT0=
EXTT1=
EXTT2=
EXTT3=
EXTT4=
EXTT5=
EXTT6=
EXTT7=
EXTT8=
EXTT9=
EXTT10=
PLAYORDER=
